<svg width="24" height="24" viewBox="0 0 24 24" fill="none" xmlns="http://www.w3.org/2000/svg">
<path d="M1.79822 17.0845C1.79822 16.5692 1.93122 16.1092 2.19722 15.7047C2.46322 15.3002 2.81847 14.9856 3.26297 14.7607C4.2133 14.2959 5.16888 13.9375 6.12972 13.6855C7.09072 13.4337 8.1468 13.3077 9.29797 13.3077C10.4493 13.3077 11.5054 13.4337 12.4662 13.6855C13.4272 13.9375 14.3829 14.2959 15.3332 14.7607C15.7777 14.9856 16.133 15.3002 16.399 15.7047C16.665 16.1092 16.798 16.5692 16.798 17.0845V17.7885C16.798 18.191 16.6502 18.5448 16.3547 18.85C16.0592 19.1552 15.7006 19.3077 15.2787 19.3077H3.31722C2.89555 19.3077 2.53697 19.16 2.24147 18.8645C1.94597 18.5688 1.79822 18.2102 1.79822 17.7885V17.0845ZM20.6827 19.3077H18.4115C18.5371 19.0782 18.633 18.834 18.699 18.575C18.765 18.316 18.798 18.0538 18.798 17.7885V16.9615C18.798 16.3052 18.6373 15.6796 18.316 15.0847C17.9945 14.4901 17.5385 13.9798 16.948 13.554C17.6185 13.654 18.2551 13.8087 18.8577 14.0182C19.4602 14.2279 20.0352 14.4757 20.5827 14.7615C21.0994 15.0372 21.4984 15.3621 21.7797 15.7362C22.0611 16.1102 22.2017 16.5187 22.2017 16.9615V17.7885C22.2017 18.2102 22.054 18.5688 21.7585 18.8645C21.463 19.16 21.1044 19.3077 20.6827 19.3077ZM6.82397 10.6662C6.14013 9.98241 5.79822 9.15775 5.79822 8.19225C5.79822 7.22691 6.14013 6.40224 6.82397 5.71824C7.50797 5.03424 8.33264 4.69225 9.29797 4.69225C10.2635 4.69225 11.0881 5.03424 11.772 5.71824C12.456 6.40224 12.798 7.22691 12.798 8.19225C12.798 9.15775 12.456 9.98241 11.772 10.6662C11.0881 11.3502 10.2635 11.6922 9.29797 11.6922C8.33264 11.6922 7.50797 11.3502 6.82397 10.6662ZM16.9045 10.6662C16.2191 11.3502 15.3952 11.6922 14.4327 11.6922C14.3199 11.6922 14.1763 11.6794 14.002 11.6537C13.8275 11.6281 13.6839 11.5999 13.5712 11.5692C13.9656 11.0951 14.2686 10.5691 14.4805 9.99125C14.6921 9.41341 14.798 8.81341 14.798 8.19125C14.798 7.56891 14.69 6.97116 14.474 6.398C14.258 5.825 13.9571 5.2975 13.5712 4.8155C13.7147 4.76416 13.8583 4.73083 14.002 4.7155C14.1455 4.7 14.2891 4.69225 14.4327 4.69225C15.3952 4.69225 16.2191 5.03424 16.9045 5.71824C17.5898 6.40224 17.9325 7.22691 17.9325 8.19225C17.9325 9.15775 17.5898 9.98241 16.9045 10.6662ZM3.29797 17.8077H15.298V17.0845C15.298 16.8757 15.2457 16.6898 15.1412 16.527C15.0369 16.3642 14.8712 16.2218 14.6442 16.1C13.8212 15.6757 12.9738 15.3542 12.102 15.1355C11.2301 14.917 10.2955 14.8077 9.29797 14.8077C8.30064 14.8077 7.36605 14.917 6.49422 15.1355C5.62238 15.3542 4.77497 15.6757 3.95197 16.1C3.72497 16.2218 3.55922 16.3642 3.45472 16.527C3.35022 16.6898 3.29797 16.8757 3.29797 17.0845V17.8077ZM10.7105 9.60475C11.1021 9.21308 11.298 8.74225 11.298 8.19225C11.298 7.64225 11.1021 7.17141 10.7105 6.77975C10.3188 6.38808 9.84797 6.19225 9.29797 6.19225C8.74797 6.19225 8.27714 6.38808 7.88547 6.77975C7.4938 7.17141 7.29797 7.64225 7.29797 8.19225C7.29797 8.74225 7.4938 9.21308 7.88547 9.60475C8.27714 9.99641 8.74797 10.1922 9.29797 10.1922C9.84797 10.1922 10.3188 9.99641 10.7105 9.60475Z" fill="#227DFF"/>
</svg>
