<svg width="24" height="24" viewBox="0 0 24 24" fill="none" xmlns="http://www.w3.org/2000/svg">
<path d="M12 19.5135C13.9563 17.7622 15.4534 16.0823 16.4912 14.474C17.5291 12.8657 18.048 11.457 18.048 10.248C18.048 8.425 17.4688 6.92633 16.3105 5.752C15.1522 4.57767 13.7153 3.9905 12 3.9905C10.2847 3.9905 8.84783 4.57767 7.6895 5.752C6.53116 6.92633 5.952 8.425 5.952 10.248C5.952 11.457 6.47091 12.8657 7.50875 14.474C8.54658 16.0823 10.0437 17.7622 12 19.5135ZM11.4155 20.8395C11.2205 20.7722 11.0442 20.668 10.8865 20.527C9.98916 19.7 9.14941 18.8483 8.36725 17.972C7.58525 17.0958 6.9055 16.2199 6.328 15.3443C5.75033 14.4686 5.29325 13.6007 4.95675 12.7405C4.62025 11.8802 4.452 11.0493 4.452 10.248C4.452 7.94033 5.19841 6.07208 6.69125 4.64325C8.18425 3.21442 9.95383 2.5 12 2.5C14.0462 2.5 15.8157 3.21442 17.3087 4.64325C18.8016 6.07208 19.548 7.94033 19.548 10.248C19.548 11.0493 19.3797 11.8785 19.0432 12.7355C18.7067 13.5927 18.2513 14.4607 17.677 15.3395C17.1025 16.2183 16.4242 17.0943 15.6422 17.9673C14.8602 18.8404 14.0205 19.6904 13.123 20.5173C12.9653 20.6583 12.7875 20.764 12.5895 20.8345C12.3913 20.905 12.1948 20.9402 12 20.9402C11.8052 20.9402 11.6103 20.9067 11.4155 20.8395ZM13.2777 11.3355C13.6311 10.9823 13.8077 10.5564 13.8077 10.0578C13.8077 9.55908 13.6311 9.13308 13.2777 8.77975C12.9246 8.42658 12.4987 8.25 12 8.25C11.5013 8.25 11.0754 8.42658 10.7222 8.77975C10.3689 9.13308 10.1922 9.55908 10.1922 10.0578C10.1922 10.5564 10.3689 10.9823 10.7222 11.3355C11.0754 11.6887 11.5013 11.8652 12 11.8652C12.4987 11.8652 12.9246 11.6887 13.2777 11.3355Z" fill="#227DFF"/>
</svg>
