<svg width="24" height="24" viewBox="0 0 24 24" fill="none" xmlns="http://www.w3.org/2000/svg">
<path d="M17.177 14.3423L21.2673 10.252L21.8 10.7848C21.9552 10.9398 22.0328 11.1186 22.0328 11.3213C22.0328 11.5238 21.9552 11.7026 21.8 11.8578L18.7828 14.875C18.6276 15.0302 18.4462 15.1052 18.2385 15.1C18.0308 15.0948 17.8494 15.0147 17.6943 14.8595L17.177 14.3423ZM1.875 17.0328C1.875 16.6968 1.96992 16.3893 2.15975 16.1105C2.34942 15.8317 2.60708 15.6269 2.93275 15.4963C3.33408 15.3308 3.71867 15.1435 4.0865 14.9345C4.4545 14.7257 4.81608 14.4853 5.17125 14.2135L6.352 15.3943C6.43533 15.5109 6.54458 15.5651 6.67975 15.5568C6.81508 15.5484 6.93592 15.491 7.04225 15.3845C7.12558 15.3012 7.16892 15.1903 7.17225 15.052C7.17542 14.9135 7.13533 14.7891 7.052 14.6788L5.927 13.5538C6.04117 13.4398 6.15433 13.3298 6.2665 13.224C6.37867 13.1182 6.49175 13.0031 6.60575 12.8788L7.70575 13.9943C7.78908 14.1109 7.89842 14.166 8.03375 14.1595C8.16892 14.1532 8.29483 14.0917 8.4115 13.975C8.49483 13.8917 8.5365 13.7808 8.5365 13.6423C8.5365 13.5038 8.49483 13.3762 8.4115 13.2595L7.21925 12.0828C7.30258 11.9481 7.38525 11.8077 7.46725 11.6615C7.54942 11.5153 7.62058 11.3583 7.68075 11.1905L9.05575 12.5653C9.13908 12.6819 9.25 12.7403 9.3885 12.7403C9.527 12.7403 9.65133 12.6852 9.7615 12.575C9.84483 12.4917 9.88492 12.3833 9.88175 12.25C9.87858 12.1167 9.83533 11.9917 9.752 11.875L8.077 10.2095L8.952 8.11151C8.9955 7.99751 9.05417 7.88826 9.128 7.78376C9.20167 7.67926 9.28208 7.58342 9.36925 7.49626L12.9713 4.07326C13.2648 3.78592 13.6218 3.64642 14.0423 3.65476C14.4628 3.66309 14.8166 3.81092 15.1038 4.09826L20.4078 9.40201L11.3213 18.8365C11.1571 19.0108 10.9613 19.1473 10.7338 19.246C10.5061 19.3448 10.2667 19.3943 10.0155 19.3943H3.39425C2.97242 19.3943 2.61375 19.2465 2.31825 18.951C2.02275 18.6555 1.875 18.2968 1.875 17.875V17.0328ZM3.375 17.8943H10.1348L18.3 9.43276L14.025 5.15776L10.375 8.61926L9.66925 10.3463L10.477 11.1635C10.7962 11.5058 10.9573 11.9113 10.9605 12.3798C10.9638 12.8484 10.8027 13.2455 10.477 13.571L7.83475 16.2135C7.49875 16.5493 7.10067 16.7237 6.6405 16.7365C6.18017 16.7493 5.79042 16.5878 5.47125 16.2518L5.204 15.9845C4.91033 16.1883 4.61033 16.3643 4.304 16.5125C3.9975 16.6605 3.68783 16.7987 3.375 16.927V17.8943Z" fill="#227DFF"/>
</svg>
